<svg xmlns="http://www.w3.org/2000/svg" version="1.1" xmlns:xlink="http://www.w3.org/1999/xlink" xmlns:svgjs="http://svgjs.dev/svgjs" width="100%" height="100%" viewBox="0 0 1000 600"><rect width="1000" height="600" x="0" y="0" fill="#f7f7f7"/><g><rect width="333.3333333333333" height="333.3333333333333" rx="13.333333333333334" ry="13.333333333333334" y="115.53813303748598" fill="#006838" transform="matrix(1.3395355982544663,0,0,1.3395355982544666,0,-78.0233771531154)" x="93.31590270996094"/><path d="M248.45827787177507 343.14317554820457L270.68470016229634 343.14317554820457Q273.2929027780208 343.14317554820457 273.2929027780208 349.23843166103893L273.2929027780208 349.23843166103893Q273.2929027780208 354.0012364375792 271.79035127113605 355.617188058191Q270.28779976425136 357.20478965037114 269.2104986838434 357.20478965037114L269.2104986838434 357.20478965037114L210.78109008592958 357.20478965037114Q208.39968769765946 357.20478965037114 208.39968769765946 351.619834049309L208.39968769765946 351.619834049309L208.39968769765946 351.3363337649912Q208.39968769765946 346.54517896001914 211.09294039867927 343.85192625899924L211.09294039867927 343.85192625899924Q211.8867411947693 343.0581254629093 214.26814358303943 343.0581254629093L214.26814358303943 343.0581254629093L214.5799938957891 343.0581254629093Q214.97689429383414 343.14317554820457 215.4871948056063 343.14317554820457L215.4871948056063 343.14317554820457Q217.7835471085811 343.14317554820457 220.16494949685122 342.85967526388674L220.16494949685122 342.85967526388674Q223.05665239689353 342.6612250648642 224.64425398907366 342.15092455309207L224.64425398907366 342.15092455309207Q227.4509068038206 341.24372364327485 227.4509068038206 338.86232125500476L227.4509068038206 338.86232125500476L227.4509068038206 222.74060479840355Q227.4509068038206 221.2664033199506 226.14680549595835 221.2664033199506L226.14680549595835 221.2664033199506L209.90223920454417 221.2664033199506Q207.09558638979723 221.2664033199506 206.10333539468468 215.879897917911L206.10333539468468 215.879897917911Q205.90488519566216 214.4907465247534 205.8198351103668 213.07324510316406L205.8198351103668 213.07324510316406Q205.8198351103668 207.20478921778408 208.51308781138658 207.20478921778408L208.51308781138658 207.20478921778408L263.9090433670992 207.20478921778408Q286.92926645371057 207.28983930307942 300.4805800441049 218.26130030618114L300.4805800441049 218.26130030618114Q314.14529374822644 229.31781139457823 314.14529374822644 248.5674806997619L314.14529374822644 248.5674806997619Q314.14529374822644 294.52287678768926 248.45827787177507 294.52287678768926L248.45827787177507 294.52287678768926L248.45827787177507 343.14317554820457ZM248.45827787177507 222.54215459938104L248.45827787177507 279.1571613776605Q269.40894888286596 279.0721112923651 278.76445826535576 274.0825062883705L278.76445826535576 274.0825062883705Q290.92662046259255 267.59034977749116 290.92662046259255 251.14733328705452L290.92662046259255 251.14733328705452L290.92662046259255 250.86383300273664Q290.92662046259255 234.3074163985728 281.06081056833057 228.2405103141703L281.06081056833057 228.2405103141703Q271.9037513848632 222.54215459938104 248.45827787177507 222.54215459938104L248.45827787177507 222.54215459938104Z " fill="#f7f7f7" transform="matrix(1.3395355982544663,0,0,1.3395355982544666,0,-78.0233771531154)"/><path d="M555.3379099531129 357.20478965037114L512.4447934856605 357.20478965037114Q509.9825663172745 357.20478965037114 509.9825663172745 351.60881881313014L509.9825663172745 351.60881881313014Q509.9825663172745 346.4885054970546 512.3328740689158 344.1102178912272L512.3328740689158 344.1102178912272Q513.1163099861294 343.32678197401344 515.8863155505637 343.32678197401344L515.8863155505637 343.32678197401344Q523.1610776389771 343.32678197401344 525.4274458280597 337.73081113677245L525.4274458280597 337.73081113677245L575.4834049671805 209.1633811511603Q576.2668408843942 207.20479135812596 579.3166449906906 207.20479135812596L579.3166449906906 207.20479135812596Q585.919890578635 207.20479135812596 586.7033264958487 209.1633811511603L586.7033264958487 209.1633811511603L639.1375732407969 343.32678197401344L650.6372933113273 343.32678197401344Q653.2114398964582 343.32678197401344 653.2114398964582 349.23053120730276L653.2114398964582 349.23053120730276Q653.2114398964582 354.15498554407475 651.7844673329616 355.6938775243161Q650.3574947694651 357.20478965037114 649.3502200187618 357.20478965037114L649.3502200187618 357.20478965037114L601.6445686312823 357.20478965037114Q599.1823414628961 357.20478965037114 599.1823414628961 351.8046777924336L599.1823414628961 351.8046777924336Q599.1823414628961 346.68436447635804 600.665273734765 345.0055732251858Q602.1482060066339 343.32678197401344 603.2394203198959 343.32678197401344L603.2394203198959 343.32678197401344Q615.4386367450813 343.32678197401344 615.4386367450813 340.9764742223722L615.4386367450813 340.9764742223722Q615.4386367450813 340.0811188884137 614.6272209736812 338.5142470539862L614.6272209736812 338.5142470539862L602.9316419238477 308.12812540776747L553.0715417640303 308.12812540776747L539.389393066976 343.32678197401344L556.3172048496301 343.32678197401344Q558.8633715805747 343.32678197401344 558.8633715805747 349.0346722279993L558.8633715805747 349.0346722279993Q558.8633715805747 354.15498554407475 557.548318433823 355.6938775243161Q556.2052854328853 357.20478965037114 555.3379099531129 357.20478965037114L555.3379099531129 357.20478965037114ZM578.14149111487 243.38274282088904L558.8633715805747 292.96304443884435L597.1398121073032 292.96304443884435L578.14149111487 243.38274282088904Z " fill="#006838" transform="matrix(1.3395355982544663,0,0,1.3395355982544666,0,-78.0233771531154)"/></g></svg>